#tb 0: 1/44100
#media_type 0: audio
#codec_id 0: pcm_s16le
#sample_rate 0: 44100
#channel_layout_name 0: stereo
0,          0,          0,     4096,    16384, 0x5e9758db
0,       4096,       4096,     4096,    16384, 0x685ff457
0,       8192,       8192,     4096,    16384, 0x081feb91
0,      12288,      12288,     4096,    16384, 0x488bee77
0,      16384,      16384,     4096,    16384, 0x4461ee63
0,      20480,      20480,     4096,    16384, 0x5f16ed6b
0,      24576,      24576,     4096,    16384, 0x10a4f433
0,      28672,      28672,     4096,    16384, 0x7eeaf34b
0,      32768,      32768,     4096,    16384, 0x8314f35f
0,      36864,      36864,     4096,    16384, 0x685ff457
0,      40960,      40960,     4096,    16384, 0x2902e618
0,      45056,      45056,     4096,    16384, 0x4d49ea46
0,      49152,      49152,     4096,    16384, 0x683cfc2b
0,      53248,      53248,     4096,    16384, 0xf014e36e
0,      57344,      57344,     4096,    16384, 0xb8640529
0,      61440,      61440,     4096,    16384, 0xe8b6e56d
0,      65536,      65536,     4096,    16384, 0x64aff31b
0,      69632,      69632,     4096,    16384, 0x752df888
0,      73728,      73728,     4096,    16384, 0x7eb6ec04
0,      77824,      77824,     4096,    16384, 0x80ebfdc5
0,      81920,      81920,     4096,    16384, 0x158936c6
0,      86016,      86016,     4096,    16384, 0x38e40982
0,      90112,      90112,     4096,    16384, 0xeca0a542
0,      94208,      94208,     4096,    16384, 0x889e103c
0,      98304,      98304,     4096,    16384, 0x2aa4eb8d
0,     102400,     102400,     4096,    16384, 0xfad51e1a
0,     106496,     106496,     4096,    16384, 0x04bdd902
0,     110592,     110592,     4096,    16384, 0x8381f7c5
0,     114688,     114688,     4096,    16384, 0xdff4c9d0
0,     118784,     118784,     4096,    16384, 0x2992f026
0,     122880,     122880,     4096,    16384, 0x756bb1d4
0,     126976,     126976,     4096,    16384, 0x97fecc32
0,     131072,     131072,     4096,    16384, 0x2fb4f2ea
0,     135168,     135168,     4096,    16384, 0xd4f3edf3
0,     139264,     139264,     4096,    16384, 0x6338eb5f
0,     143360,     143360,     4096,    16384, 0x4bc9f884
0,     147456,     147456,     4096,    16384, 0x1f1ceb8b
0,     151552,     151552,     4096,    16384, 0x95b7f06f
0,     155648,     155648,     4096,    16384, 0x269eeeeb
0,     159744,     159744,     4096,    16384, 0xff69ec8c
0,     163840,     163840,     4096,    16384, 0x97e6f943
0,     167936,     167936,     4096,    16384, 0x659ee664
0,     172032,     172032,     4096,    16384, 0x00cfee55
0,     176128,     176128,     4096,    16384, 0x3063f866
0,     180224,     180224,     4096,    16384, 0x16d3eabe
0,     184320,     184320,     4096,    16384, 0x4162b9e8
0,     188416,     188416,     4096,    16384, 0xaa9ced5c
0,     192512,     192512,     4096,    16384, 0x6a7be167
0,     196608,     196608,     4096,    16384, 0xb0a2f704
0,     200704,     200704,     4096,    16384, 0xc498c341
0,     204800,     204800,     4096,    16384, 0x1cd9f466
0,     208896,     208896,     4096,    16384, 0xf113f06b
0,     212992,     212992,     4096,    16384, 0x16d3eabe
0,     217088,     217088,     4096,    16384, 0x4162b9e8
0,     221184,     221184,     4096,    16384, 0xaa9ced5c
0,     225280,     225280,     4096,    16384, 0x6a7be167
0,     229376,     229376,     4096,    16384, 0xb0a2f704
0,     233472,     233472,     4096,    16384, 0xc498c341
0,     237568,     237568,     4096,    16384, 0x1cd9f466
0,     241664,     241664,     4096,    16384, 0xf113f06b
0,     245760,     245760,     4096,    16384, 0x16d3eabe
0,     249856,     249856,     4096,    16384, 0x4162b9e8
0,     253952,     253952,     4096,    16384, 0xaa9ced5c
0,     258048,     258048,     4096,    16384, 0x6a7be167
0,     262144,     262144,     2456,     9824, 0x31789c9b
0,     264600,     264600,     1852,     7408, 0x8e009ab7
